<?xml version="1.0" encoding="utf-8"?>
<!-- Generator: Adobe Illustrator 24.0.0, SVG Export Plug-In . SVG Version: 6.00 Build 0)  -->
<svg version="1.1" id="Layer_1" xmlns="http://www.w3.org/2000/svg" xmlns:xlink="http://www.w3.org/1999/xlink" x="0px" y="0px"
	 viewBox="0 0 1104.02 190.89" style="enable-background:new 0 0 1104.02 190.89;" xml:space="preserve">
<style type="text/css">
	.st0{fill:#1B1946;}
	.st1{fill:#FFFFFF;}
	.st2{fill:#02EEB3;}
	.st3{fill:#02EDB3;}
</style>
<g>
	<path class="st0" d="M300.14,0c-9.01,51.03-18.02,102.06-27.03,153.1c-1.82,10.3-3.69,20.6-5.46,30.91
		c-0.38,2.22-1.34,4.44-0.5,6.76c-87.31,0-174.62-0.04-261.94,0.12c-4.25,0.01-5.86-0.92-4.98-5.11c1.94-1.72,1.56-4.2,1.94-6.36
		c8.91-50.17,17.81-100.34,26.55-150.53c1.67-9.6,4.16-19.08,4.5-28.89c23.99,0,47.99,0,71.98,0c-0.04,0.99,0.03,2-0.14,2.97
		c-5.14,29.08-10.22,58.18-15.57,87.22c-0.8,4.32,0.12,5.38,4.45,5.3c13.3-0.25,26.62-0.38,39.92,0.05
		c5.12,0.16,6.61-1.58,7.38-6.34c3.27-20.14,7.09-40.19,10.45-60.32c1.6-9.61,4.17-19.07,4.5-28.88C204.17,0,252.15,0,300.14,0z
		 M224.15,23.91c-14.32,0-28.64,0.16-42.96-0.11c-3.84-0.07-5.24,1.2-5.67,4.78c-0.6,4.94-1.24,9.93-2.52,14.72
		c-1.1,4.13,0.32,4.63,3.98,4.6c20.81-0.15,41.63-0.01,62.44-0.14c3.31-0.02,4.38,0.84,3.78,4.21
		c-3.83,21.25-7.55,42.51-11.24,63.78c-0.46,2.67-1.79,3.4-4.4,3.37c-13.32-0.12-26.64-0.16-39.96,0.02
		c-3.5,0.05-3.85-1.39-3.31-4.2c1.04-5.38,1.89-10.8,2.93-16.17c0.5-2.58-0.24-3.65-3-3.59c-5.83,0.13-11.66,0.07-17.48,0.02
		c-1.95-0.02-3.06,0.6-3.42,2.7c-2.33,13.75-4.63,27.51-7.2,41.22c-0.73,3.92,1.18,3.97,4.01,3.96c28.97-0.05,57.95-0.09,86.92,0.05
		c3.26,0.02,4.29-1.25,4.78-4.1c6.49-37.3,12.97-74.6,19.66-111.87c0.67-3.73-1.14-3.28-3.38-3.28
		C253.45,23.92,238.8,23.91,224.15,23.91z M80.51,143.07c14.48,0,28.97-0.09,43.45,0.08c3.12,0.04,4.46-0.96,4.88-3.98
		c0.7-5.1,1.28-10.26,2.62-15.21c1.17-4.32-0.22-4.98-4.16-4.95c-20.48,0.16-40.96-0.01-61.43,0.15c-3.87,0.03-5.25-0.68-4.46-4.94
		c5.27-28.74,10.29-57.52,15.48-86.28c0.52-2.9,0.21-4.28-3.26-4.1c-5.15,0.27-10.35,0.39-15.47-0.03
		c-3.99-0.33-5.07,1.44-5.62,4.86c-1.77,10.98-3.72,21.93-5.66,32.89c-4.48,25.34-8.93,50.69-13.57,76
		c-0.79,4.31,0.01,5.74,4.75,5.64C52.2,142.86,66.36,143.07,80.51,143.07z"/>
	<path class="st1" d="M621.01,149.82c3.55-20.13,7.02-39.87,10.51-59.62c2.78-15.69,5.66-31.36,8.3-47.07
		c0.42-2.49,1.13-3.28,3.67-3.27c20.8,0.1,41.6,0.13,62.41-0.02c3.43-0.02,3.22,1.33,2.73,3.84c-1.91,9.86-1.85,10.05,7.71,9.92
		c3.5-0.04,4.15,1.02,3.57,4.21c-3.54,19.43-6.96,38.88-10.4,58.33c-0.96,5.39-1.95,10.78-2.77,16.2c-0.41,2.66-1.29,3.84-4.4,3.82
		c-9.78-0.08-9.85,0.09-11.87,10.05c-0.46,2.29-0.77,3.71-3.81,3.69C665.04,149.74,643.41,149.82,621.01,149.82z M669.63,108.73
		c-1.49,0-2.98,0-4.48,0c-10.44,0-10.62,0.27-11.29,10.84c-0.15,2.35,0.56,2.87,2.65,2.84c4.64-0.09,9.28-0.02,13.93-0.02
		c10.63,0,10.58-0.01,12.33-10.21c0.41-2.38,0.37-3.74-2.71-3.5C676.6,108.94,673.11,108.73,669.63,108.73z M674.03,81.04
		c1.49,0,2.98,0,4.47,0c10.27,0,10.27,0,11.46-10.03c0.02-0.16,0.01-0.33,0.05-0.49c0.62-2.39-0.26-3.25-2.74-3.18
		c-4.8,0.14-9.61,0.04-14.42,0.04c-10.74,0-10.68,0.01-11.8,10.85c-0.23,2.2,0.28,2.94,2.52,2.84
		C667.07,80.92,670.55,81.04,674.03,81.04z"/>
	<path class="st1" d="M1004.94,149.31c6.29-35.44,12.61-70.9,18.8-106.38c0.39-2.24,0.95-3.08,3.33-3.07
		c20.97,0.09,41.94,0.12,62.91-0.03c3.19-0.02,3.06,1.25,2.61,3.55c-0.63,3.23-2.83,7.31-1.14,9.53c1.75,2.3,6.23,0.82,9.47,0.69
		c3.42-0.14,3.33,1.49,2.89,3.91c-3.82,21.41-7.6,42.82-11.4,64.23c-0.44,2.45-1.29,4.9-1.29,7.34c0,5.66-2.35,7.58-8.09,7.12
		c-7-0.57-7.03-0.13-8.12,6.78c-1.07,6.84-1.07,6.84-8.05,6.84c-18.97,0-37.95,0.01-56.92-0.02
		C1008.32,149.8,1006.63,150.22,1004.94,149.31z M1051.28,122.34c3.33,0,6.66-0.1,9.98,0.04c2.28,0.09,3.54-0.31,3.99-3
		c2.74-16.2,5.68-32.36,8.61-48.53c0.46-2.54-0.12-3.56-2.95-3.48c-6.98,0.18-13.98,0.17-20.96,0c-2.38-0.06-3.13,0.89-3.5,3.02
		c-2.8,16.19-5.67,32.36-8.59,48.53c-0.46,2.55,0.1,3.65,2.93,3.47C1044.29,122.18,1047.79,122.34,1051.28,122.34z"/>
	<path class="st1" d="M793.22,108.64c4.44,0,8.71,0,13.55,0c-2.34,13.44-4.63,26.42-6.84,39.42c-0.33,1.95-1.65,1.76-2.96,1.76
		c-8.15,0.01-16.29,0-24.94,0c1.38-8.07,2.55-15.86,4.12-23.56c0.67-3.3-0.32-3.95-3.38-3.87c-3.1,0.09-7.49,1.48-8.96-0.66
		c-1.29-1.88,0.45-5.95,1.06-9.01c0.55-2.76,0.37-4.09-3.2-4.07c-10.01,0.06-9.96-0.13-11.6,9.52c-1.61,9.5-3.46,18.95-4.92,28.47
		c-0.39,2.57-1.26,3.29-3.74,3.24c-7.16-0.15-14.32-0.14-21.48,0c-2.51,0.05-2.96-0.58-2.51-3.09
		c5.33-29.75,10.54-59.52,15.73-89.29c0.45-2.6,1.22-3.91,4.38-3.89c9.9,0.05,10-0.11,11.73-9.55c0.55-3.02,1.51-4.29,4.97-4.24
		c15.65,0.24,31.3,0.21,46.95,0.03c3.5-0.04,4.08,0.84,3.37,4.17c-2.02,9.41-1.87,9.63,8.09,9.6c3.48-0.01,3.77,1.22,3.25,4.06
		c-2.1,11.43-4.11,22.88-6.04,34.34c-0.38,2.23-1.34,2.92-3.61,2.96c-3.59,0.06-8.29-1.7-10.49,0.85c-2.05,2.38-1.62,6.91-2.27,10.5
		C793.37,106.95,793.33,107.61,793.22,108.64z M770.33,81.04c3.65,0,7.3-0.17,10.93,0.06c2.46,0.15,3.45-1.04,3.42-3.08
		c-0.06-3.51,2.62-6.87,0.6-10.37c-0.28-0.48-1.87-0.25-2.85-0.25c-4.47-0.02-8.95-0.01-13.42-0.01c-10,0-9.94,0.01-11.76,9.71
		c-0.53,2.82-0.38,4.35,3.15,4.01C763.68,80.79,767.02,81.04,770.33,81.04z"/>
	<path class="st1" d="M867.94,149.82c2.23-12.63,4.16-24.78,6.61-36.82c0.8-3.94-0.38-4.43-3.78-4.31
		c-6.32,0.22-12.67,0.24-18.99-0.01c-3.12-0.12-4.32,0.83-4.82,3.95c-1.79,11.15-4.01,22.24-5.76,33.4
		c-0.45,2.84-1.13,3.96-4.22,3.87c-7.81-0.24-15.63-0.08-24.02-0.08c1.87-10.68,3.69-21.05,5.51-31.42
		c3.49-19.8,7.08-39.58,10.41-59.41c0.64-3.84,1.57-5.68,6.1-5.43c8.61,0.47,8.78,0.15,10.05-8.52c0.57-3.87,1.8-5.37,6.17-5.27
		c15.32,0.37,30.65,0.25,45.98,0.06c3.59-0.05,4.02,0.95,3.32,4.21c-2.03,9.51-1.88,9.77,7.65,9.55c4.02-0.09,4.21,1.41,3.63,4.61
		c-5.28,29.27-10.53,58.55-15.59,87.86c-0.5,2.87-1.2,3.92-4.25,3.83C884.14,149.67,876.32,149.82,867.94,149.82z M866.13,81.03
		c3.81,0,7.63-0.09,11.43,0.04c1.87,0.07,2.9-0.63,2.95-2.41c0.11-3.69,2.47-7.2,0.92-10.98c-0.12-0.3-1.23-0.28-1.88-0.28
		c-7.29-0.02-14.58,0.07-21.87-0.06c-2.17-0.04-2.66,0.89-3.14,2.77c-2.83,10.95-2.89,10.93,8.1,10.93
		C863.81,81.04,864.97,81.04,866.13,81.03z"/>
	<path class="st1" d="M908.93,149.82c3.86-21.98,7.64-43.54,11.43-65.11c1.55-8.84,3.22-17.65,4.6-26.51
		c0.51-3.29,1.54-4.73,5.3-4.61c9.14,0.29,9.29,0.08,10.88-9.34c0.57-3.36,1.69-4.51,5.33-4.45c15.49,0.26,30.98,0.18,46.47,0.05
		c3.08-0.02,4.4,0.29,3.6,3.98c-2.07,9.62-1.89,9.89,7.87,9.75c3.91-0.06,3.87,1.58,3.36,4.4c-5.29,29.6-10.56,59.21-15.76,88.83
		c-0.32,1.82-0.51,3.07-2.86,3.04c-8.31-0.11-16.62-0.04-25.24-0.04c3.86-21.95,7.64-43.51,11.44-65.07
		c0.78-4.42,1.48-8.85,2.46-13.23c0.76-3.39-0.4-4.29-3.73-4.16c-6.15,0.24-12.34,0.31-18.48-0.02c-3.55-0.2-4.92,0.9-5.5,4.39
		c-2.94,17.7-6.1,35.36-9.2,53.04c-1.29,7.36-2.69,14.71-3.89,22.09c-0.3,1.86-0.58,3.04-2.9,3.01
		C925.83,149.75,917.52,149.82,908.93,149.82z"/>
	<path class="st1" d="M463.81,108.7c-0.65,3.91-1.15,7.33-1.8,10.72c-0.41,2.14,0.2,2.98,2.49,2.95c7.16-0.1,14.33-0.23,21.48,0.05
		c3.38,0.13,3.25-2.07,3.61-4.08c2.85-16.03,5.66-32.07,8.49-48.1c1.62-9.16,3.3-18.31,4.88-27.48c0.27-1.55,0.28-2.89,2.46-2.88
		c8.47,0.07,16.94,0.03,25.57,0.03c-5.44,31.03-10.85,61.61-16.11,92.22c-0.58,3.35-2.05,4.09-5.26,4.02
		c-9.13-0.2-9.32-0.07-10.74,8.91c-0.6,3.83-1.98,4.96-5.96,4.88c-15.15-0.3-30.31-0.24-45.47-0.04c-3.71,0.05-4.89-0.52-3.97-4.55
		c2.09-9.15,1.88-9.38-7.49-9.19c-3.6,0.07-4.62-0.83-3.87-4.38c1.41-6.66,2.51-13.39,3.73-20.09c0.26-1.4-0.02-3.04,2.32-3.02
		C446.64,108.75,455.11,108.7,463.81,108.7z"/>
	<path class="st1" d="M380.08,39.92c-4.56,25.77-9.03,51.1-13.55,76.42c-1.07,6.01-1.16,6,4.86,6c14.98,0,29.96,0.12,44.94-0.08
		c3.57-0.05,4.21,1.07,3.55,4.28c-1.39,6.83-2.63,13.7-3.69,20.58c-0.32,2.11-1.07,2.75-3.14,2.75
		c-21.14-0.06-42.27-0.07-63.41,0.01c-2.32,0.01-2.81-0.73-2.42-2.87c0.64-3.52,3.13-8.01,1.05-10.31c-1.61-1.78-6.59-0.6-10.07-0.6
		c-4.45,0-2.07-3.17-1.84-4.59c2.13-13.11,4.51-26.17,6.84-39.25c2.91-16.34,5.85-32.68,8.77-49.02c0.28-1.55-0.12-3.38,2.51-3.35
		C362.94,39.98,371.4,39.92,380.08,39.92z"/>
	<path class="st1" d="M573.67,108.76c-12.49,0-24.99-0.09-37.48,0.06c-3.05,0.04-4.02-0.46-3.3-3.78
		c1.48-6.81,2.54-13.72,3.62-20.61c0.39-2.49,1.23-3.52,4.05-3.5c25.15,0.13,50.31,0.12,75.46,0.02c2.88-0.01,3.73,0.61,3.13,3.57
		c-1.39,6.84-2.71,13.7-3.58,20.62c-0.43,3.46-2.13,3.7-4.93,3.68C598.32,108.7,586,108.76,573.67,108.76z"/>
	<path class="st2" d="M224.15,23.91c14.65,0,29.31,0.01,43.96-0.01c2.23,0,4.05-0.45,3.38,3.28
		c-6.69,37.26-13.18,74.57-19.66,111.87c-0.5,2.85-1.52,4.12-4.78,4.1c-28.97-0.14-57.95-0.1-86.92-0.05
		c-2.84,0-4.75-0.05-4.01-3.96c2.57-13.71,4.87-27.47,7.2-41.22c0.36-2.1,1.47-2.72,3.42-2.7c5.83,0.05,11.66,0.11,17.48-0.02
		c2.76-0.06,3.5,1.01,3,3.59c-1.04,5.38-1.89,10.8-2.93,16.17c-0.54,2.81-0.2,4.25,3.31,4.2c13.32-0.18,26.64-0.14,39.96-0.02
		c2.61,0.02,3.94-0.7,4.4-3.37c3.69-21.27,7.42-42.53,11.24-63.78c0.61-3.37-0.47-4.23-3.78-4.21c-20.81,0.13-41.63-0.01-62.44,0.14
		c-3.66,0.03-5.08-0.47-3.98-4.6c1.28-4.79,1.92-9.78,2.52-14.72c0.44-3.58,1.84-4.86,5.67-4.78
		C195.5,24.07,209.83,23.91,224.15,23.91z"/>
	<path class="st3" d="M80.51,143.07c-14.15,0-28.31-0.21-42.45,0.12c-4.73,0.11-5.54-1.33-4.75-5.64c4.64-25.31,9.08-50.66,13.57-76
		c1.94-10.95,3.89-21.91,5.66-32.89c0.55-3.42,1.63-5.19,5.62-4.86c5.13,0.43,10.32,0.31,15.47,0.03c3.47-0.18,3.78,1.2,3.26,4.1
		c-5.18,28.75-10.2,57.54-15.48,86.28c-0.78,4.26,0.6,4.97,4.46,4.94c20.48-0.16,40.96,0.01,61.43-0.15
		c3.94-0.03,5.33,0.63,4.16,4.95c-1.34,4.94-1.92,10.11-2.62,15.21c-0.42,3.02-1.75,4.02-4.88,3.98
		C109.48,142.97,94.99,143.07,80.51,143.07z"/>
</g>
</svg>
